<?xml version="1.0" encoding="UTF-8"?>
<!DOCTYPE svg PUBLIC "-//W3C//DTD SVG 1.1//EN" "http://www.w3.org/Graphics/SVG/1.1/DTD/svg11.dtd">
<svg xmlns="http://www.w3.org/2000/svg" version="1.1" width="300px" height="300px" style="shape-rendering:geometricPrecision; text-rendering:geometricPrecision; image-rendering:optimizeQuality; fill-rule:evenodd; clip-rule:evenodd" xmlns:xlink="http://www.w3.org/1999/xlink">
<g><path style="opacity:0.989" fill="#55c501" d="M 131.5,-0.5 C 143.5,-0.5 155.5,-0.5 167.5,-0.5C 241.833,13.1667 285.833,57.1667 299.5,131.5C 299.5,143.5 299.5,155.5 299.5,167.5C 297.045,185.865 291.379,203.198 282.5,219.5C 280.076,218.97 277.743,218.136 275.5,217C 268.143,216.586 260.81,216.586 253.5,217C 245.399,211.947 241.232,204.78 241,195.5C 253.152,154.113 244.819,117.447 216,85.5C 215.826,74.1301 215.159,62.7968 214,51.5C 211.441,48.6508 208.274,47.8175 204.5,49C 197.582,53.582 190.416,57.7486 183,61.5C 148.999,48.8374 117.665,53.504 89,75.5C 81.188,73.422 73.3546,71.422 65.5,69.5C 63.3033,69.8481 61.47,70.8481 60,72.5C 59.3333,75.5 59.3333,78.5 60,81.5C 62.2999,88.3656 64.1332,95.3656 65.5,102.5C 60.2191,113.737 56.0525,125.403 53,137.5C 46.4232,168.721 52.0898,197.388 70,223.5C 89.8309,244.227 114.164,254.227 143,253.5C 157.32,252.856 171.487,251.023 185.5,248C 199.541,244.399 211.708,237.566 222,227.5C 230.813,240.98 242.979,249.647 258.5,253.5C 233.481,279.176 203.148,294.51 167.5,299.5C 155.5,299.5 143.5,299.5 131.5,299.5C 57.1667,285.833 13.1667,241.833 -0.5,167.5C -0.5,155.5 -0.5,143.5 -0.5,131.5C 13.1667,57.1667 57.1667,13.1667 131.5,-0.5 Z"/></g>
<g><path style="opacity:0.999" fill="#fefefd" d="M 282.5,219.5 C 276.437,232.225 268.437,243.559 258.5,253.5C 242.979,249.647 230.813,240.98 222,227.5C 211.708,237.566 199.541,244.399 185.5,248C 171.487,251.023 157.32,252.856 143,253.5C 114.164,254.227 89.8309,244.227 70,223.5C 52.0898,197.388 46.4232,168.721 53,137.5C 56.0525,125.403 60.2191,113.737 65.5,102.5C 64.1332,95.3656 62.2999,88.3656 60,81.5C 59.3333,78.5 59.3333,75.5 60,72.5C 61.47,70.8481 63.3033,69.8481 65.5,69.5C 73.3546,71.422 81.188,73.422 89,75.5C 117.665,53.504 148.999,48.8374 183,61.5C 190.416,57.7486 197.582,53.582 204.5,49C 208.274,47.8175 211.441,48.6508 214,51.5C 215.159,62.7968 215.826,74.1301 216,85.5C 244.819,117.447 253.152,154.113 241,195.5C 241.232,204.78 245.399,211.947 253.5,217C 260.81,216.586 268.143,216.586 275.5,217C 277.743,218.136 280.076,218.97 282.5,219.5 Z"/></g>
<g><path style="opacity:1" fill="#56c504" d="M 135.5,71.5 C 166.417,68.2078 189.584,79.8744 205,106.5C 210.303,104.121 215.803,102.454 221.5,101.5C 221.5,102.5 221.5,103.5 221.5,104.5C 217.055,105.195 212.722,106.362 208.5,108C 206.033,110.043 206.033,112.21 208.5,114.5C 213.11,113.507 217.777,112.84 222.5,112.5C 222.5,113.5 222.5,114.5 222.5,115.5C 217.807,115.54 213.141,115.873 208.5,116.5C 208.833,118.5 209.167,120.5 209.5,122.5C 214.117,123.487 218.784,124.154 223.5,124.5C 223.5,125.5 223.5,126.5 223.5,127.5C 219.797,127.093 216.13,126.426 212.5,125.5C 211.833,125.833 211.167,126.167 210.5,126.5C 213.232,152.609 201.899,169.109 176.5,176C 158.149,180.964 139.483,182.631 120.5,181C 96.3838,177.051 83.7172,162.885 82.5,138.5C 78.392,139.469 74.5586,141.136 71,143.5C 70.3162,142.216 70.4829,141.049 71.5,140C 74.7914,138.403 78.1248,136.903 81.5,135.5C 82.4656,133.604 82.7989,131.604 82.5,129.5C 78.1311,129.467 73.7978,129.8 69.5,130.5C 69.5,129.5 69.5,128.5 69.5,127.5C 74.1667,127.5 78.8333,127.5 83.5,127.5C 83.8333,125.5 84.1667,123.5 84.5,121.5C 79.1779,121.02 73.8446,120.687 68.5,120.5C 68.5,119.5 68.5,118.5 68.5,117.5C 73.8224,118.428 79.1558,118.928 84.5,119C 93.3863,94.2748 110.386,78.4415 135.5,71.5 Z"/></g>
</svg>
